<svg width="455" height="208" viewBox="0 0 455 208" fill="none" xmlns="http://www.w3.org/2000/svg">
<rect x="5" y="5" width="445" height="198" rx="65" stroke="white" stroke-width="10"/>
<g clip-path="url(#clip0_23_7)">
<path d="M108.275 53.3578C110.469 53.3578 112.406 54.1516 114.084 55.7394L118.924 60.5669C120.559 62.1976 121.376 64.1501 121.376 66.4244C121.376 68.7416 120.559 70.6726 118.924 72.2175L100.014 91.1415L145.449 91.1415C147.686 91.1415 149.504 91.9461 150.903 93.5553C152.301 95.1645 153 97.1062 153 99.3805V107.62C153 109.894 152.301 111.836 150.903 113.445C149.504 115.054 147.686 115.859 145.449 115.859L100.014 115.859L118.924 134.783C120.559 136.327 121.376 138.259 121.376 140.576C121.376 142.893 120.559 144.824 118.924 146.369L114.084 151.196C112.449 152.827 110.512 153.642 108.275 153.642C105.995 153.642 104.037 152.827 102.402 151.196L60.3879 109.293C58.796 107.791 58 105.86 58 103.5C58 101.183 58.796 99.2303 60.3879 97.6426L102.402 55.7394C104.08 54.1516 106.038 53.3578 108.275 53.3578Z" fill="white"/>
</g>
<path d="M214.82 89L198.638 48.4H207.86L216.328 70.382C216.792 71.5807 217.179 72.644 217.488 73.572C217.836 74.4613 218.126 75.312 218.358 76.124C218.629 76.8973 218.88 77.6707 219.112 78.444C219.344 79.1787 219.576 79.9907 219.808 80.88L218.126 80.938C218.435 79.7393 218.745 78.6373 219.054 77.632C219.363 76.588 219.711 75.5053 220.098 74.384C220.485 73.2627 220.968 71.9287 221.548 70.382L229.552 48.4H238.716L222.418 89H214.82ZM254.279 89.58C251.147 89.58 248.343 88.9033 245.869 87.55C243.433 86.158 241.499 84.2633 240.069 81.866C238.677 79.4687 237.981 76.7233 237.981 73.63C237.981 70.5367 238.677 67.8107 240.069 65.452C241.499 63.0547 243.433 61.16 245.869 59.768C248.343 58.376 251.147 57.68 254.279 57.68C257.372 57.68 260.137 58.376 262.573 59.768C265.047 61.16 266.981 63.0547 268.373 65.452C269.765 67.8107 270.461 70.5367 270.461 73.63C270.461 76.7233 269.765 79.4687 268.373 81.866C266.981 84.2633 265.047 86.158 262.573 87.55C260.137 88.9033 257.372 89.58 254.279 89.58ZM254.279 82.388C255.787 82.388 257.14 82.0207 258.339 81.286C259.537 80.5127 260.465 79.4687 261.123 78.154C261.819 76.8007 262.167 75.2927 262.167 73.63C262.167 71.9287 261.819 70.4207 261.123 69.106C260.465 67.7527 259.537 66.7087 258.339 65.974C257.14 65.2007 255.787 64.814 254.279 64.814C252.732 64.814 251.359 65.2007 250.161 65.974C248.962 66.7473 248.015 67.7913 247.319 69.106C246.623 70.4207 246.294 71.9287 246.333 73.63C246.294 75.2927 246.623 76.8007 247.319 78.154C248.015 79.4687 248.962 80.5127 250.161 81.286C251.359 82.0207 252.732 82.388 254.279 82.388ZM276.715 89V46.08H284.951V89H276.715ZM296.097 89V50.546H304.333V89H296.097ZM290.355 65.684V58.318H310.597V65.684H290.355ZM327.166 89.58C324.614 89.58 322.314 88.884 320.264 87.492C318.215 86.1 316.591 84.2053 315.392 81.808C314.194 79.4107 313.594 76.6653 313.594 73.572C313.594 70.4787 314.194 67.7527 315.392 65.394C316.63 62.9967 318.292 61.1213 320.38 59.768C322.468 58.376 324.846 57.68 327.514 57.68C329.022 57.68 330.395 57.912 331.632 58.376C332.908 58.8013 334.01 59.4007 334.938 60.174C335.905 60.9473 336.717 61.8367 337.374 62.842C338.032 63.8473 338.496 64.93 338.766 66.09L337.026 65.8V58.318H345.204V89H336.91V81.634L338.766 81.46C338.457 82.5427 337.954 83.5673 337.258 84.534C336.562 85.5007 335.692 86.3707 334.648 87.144C333.643 87.8787 332.502 88.478 331.226 88.942C329.95 89.3673 328.597 89.58 327.166 89.58ZM329.428 82.446C330.975 82.446 332.328 82.0787 333.488 81.344C334.648 80.6093 335.538 79.5847 336.156 78.27C336.814 76.9167 337.142 75.3507 337.142 73.572C337.142 71.832 336.814 70.3047 336.156 68.99C335.538 67.6753 334.648 66.6507 333.488 65.916C332.328 65.1427 330.975 64.756 329.428 64.756C327.92 64.756 326.586 65.1427 325.426 65.916C324.305 66.6507 323.416 67.6753 322.758 68.99C322.101 70.3047 321.772 71.832 321.772 73.572C321.772 75.3507 322.101 76.9167 322.758 78.27C323.416 79.5847 324.305 80.6093 325.426 81.344C326.586 82.0787 327.92 82.446 329.428 82.446ZM353.462 89V58.318H361.408L361.698 68.178L360.306 66.148C360.77 64.5627 361.524 63.132 362.568 61.856C363.612 60.5413 364.83 59.5167 366.222 58.782C367.652 58.0473 369.141 57.68 370.688 57.68C371.345 57.68 371.983 57.738 372.602 57.854C373.22 57.97 373.742 58.1053 374.168 58.26L371.964 67.308C371.5 67.076 370.939 66.8827 370.282 66.728C369.624 66.5347 368.948 66.438 368.252 66.438C367.324 66.438 366.454 66.612 365.642 66.96C364.868 67.2693 364.192 67.7333 363.612 68.352C363.032 68.932 362.568 69.628 362.22 70.44C361.91 71.252 361.756 72.1413 361.756 73.108V89H353.462ZM203.278 162V121.4H211.224L226.014 145.47L220.794 145.412L235.758 121.4H243.356V162H234.83V148.08C234.83 144.6 234.907 141.468 235.062 138.684C235.255 135.9 235.565 133.135 235.99 130.39L237.034 133.116L225.144 151.56H221.316L209.658 133.232L210.644 130.39C211.069 132.981 211.359 135.649 211.514 138.394C211.707 141.101 211.804 144.329 211.804 148.08V162H203.278ZM267.313 162.58C263.987 162.58 261.087 161.903 258.613 160.55C256.138 159.197 254.205 157.341 252.813 154.982C251.421 152.623 250.725 149.917 250.725 146.862C250.725 144.503 251.111 142.338 251.885 140.366C252.658 138.394 253.741 136.693 255.133 135.262C256.525 133.793 258.168 132.671 260.063 131.898C261.996 131.086 264.084 130.68 266.327 130.68C268.415 130.68 270.348 131.067 272.127 131.84C273.905 132.575 275.433 133.638 276.709 135.03C278.023 136.383 279.029 137.988 279.725 139.844C280.421 141.7 280.73 143.73 280.653 145.934L280.595 148.486H255.945L254.611 143.44H273.809L272.881 144.484V143.208C272.803 142.164 272.455 141.217 271.837 140.366C271.257 139.515 270.503 138.858 269.575 138.394C268.647 137.93 267.603 137.698 266.443 137.698C264.741 137.698 263.291 138.027 262.093 138.684C260.933 139.341 260.043 140.308 259.425 141.584C258.806 142.86 258.497 144.407 258.497 146.224C258.497 148.08 258.883 149.685 259.657 151.038C260.469 152.391 261.59 153.455 263.021 154.228C264.49 154.963 266.211 155.33 268.183 155.33C269.536 155.33 270.773 155.117 271.895 154.692C273.016 154.267 274.215 153.532 275.491 152.488L279.435 157.998C278.313 159.003 277.076 159.854 275.723 160.55C274.369 161.207 272.977 161.71 271.547 162.058C270.116 162.406 268.705 162.58 267.313 162.58ZM286.739 162V131.318H294.627L294.859 137.582L293.235 138.278C293.66 136.886 294.414 135.629 295.497 134.508C296.618 133.348 297.952 132.42 299.499 131.724C301.046 131.028 302.67 130.68 304.371 130.68C306.691 130.68 308.624 131.144 310.171 132.072C311.756 133 312.936 134.411 313.709 136.306C314.521 138.162 314.927 140.463 314.927 143.208V162H306.691V143.846C306.691 142.454 306.498 141.294 306.111 140.366C305.724 139.438 305.125 138.761 304.313 138.336C303.54 137.872 302.573 137.679 301.413 137.756C300.485 137.756 299.615 137.911 298.803 138.22C298.03 138.491 297.353 138.897 296.773 139.438C296.232 139.979 295.787 140.598 295.439 141.294C295.13 141.99 294.975 142.744 294.975 143.556V162H290.915C290.026 162 289.233 162 288.537 162C287.841 162 287.242 162 286.739 162ZM333.375 162.58C331.133 162.58 329.199 162.097 327.575 161.13C325.99 160.125 324.753 158.713 323.863 156.896C323.013 155.04 322.587 152.817 322.587 150.226V131.318H330.823V148.892C330.823 150.284 331.055 151.502 331.519 152.546C331.983 153.551 332.641 154.325 333.491 154.866C334.342 155.407 335.386 155.678 336.623 155.678C337.513 155.678 338.344 155.543 339.117 155.272C339.891 154.963 340.548 154.537 341.089 153.996C341.631 153.455 342.056 152.817 342.365 152.082C342.675 151.347 342.829 150.555 342.829 149.704V131.318H351.065V162H343.235L342.945 155.678L344.453 154.982C343.989 156.413 343.216 157.708 342.133 158.868C341.051 160.028 339.755 160.937 338.247 161.594C336.739 162.251 335.115 162.58 333.375 162.58Z" fill="white"/>
<defs>
<clipPath id="clip0_23_7">
<rect width="103" height="95" fill="white" transform="matrix(0 -1 1 0 58 155)"/>
</clipPath>
</defs>
</svg>
