<svg class="svg-icon" style="width: 1em; height: 1em;vertical-align: middle;fill: currentColor;overflow: hidden;" viewBox="0 0 1024 1024" version="1.1" xmlns="http://www.w3.org/2000/svg"><path d="M832 128 192 128C153.6 128 128 153.6 128 192l0 640c0 38.4 25.6 64 64 64l640 0c38.4 0 64-25.6 64-64L896 192C896 153.6 870.4 128 832 128zM832 768c0 38.4-25.6 64-64 64L256 832c-38.4 0-64-25.6-64-64L192 256c0-38.4 25.6-64 64-64l512 0c38.4 0 64 25.6 64 64L832 768z"  /><path d="M256 441.6l512 0 0 128-512 0 0-128Z"  /><path d="M448 249.6l128 0 0 512-128 0 0-512Z"  /></svg>